HIERARCHY
ROOT root
{
	OFFSET 0.000000 0.000000 0.000000
	CHANNELS 6 Xposition Yposition Zposition Zrotation Yrotation Xrotation
	JOINT lhip
	{
		OFFSET 0.058581 -0.082280 -0.017664
		CHANNELS 3 Zrotation Yrotation Xrotation
		JOINT lknee
		{
			OFFSET 0.043451 -0.386469 0.008037
			CHANNELS 3 Zrotation Yrotation Xrotation
			JOINT lankle
			{
				OFFSET -0.014790 -0.426874 -0.037428
				CHANNELS 3 Zrotation Yrotation Xrotation
				JOINT ltoe
				{
					OFFSET 0.041054 -0.060286 0.122042
					CHANNELS 3 Zrotation Yrotation Xrotation
					End Site
					{
						OFFSET 0.000000 0.000000 0.000000
					}
				}
			}
		}
	}
	JOINT rhip
	{
		OFFSET -0.060310 -0.090513 -0.013543
		CHANNELS 3 Zrotation Yrotation Xrotation
		JOINT rknee
		{
			OFFSET -0.043257 -0.383688 -0.004843
			CHANNELS 3 Zrotation Yrotation Xrotation
			JOINT rankle
			{
				OFFSET 0.019056 -0.420046 -0.034562
				CHANNELS 3 Zrotation Yrotation Xrotation
				JOINT rtoe
				{
					OFFSET -0.034840 -0.062106 0.130323
					CHANNELS 3 Zrotation Yrotation Xrotation
					End Site
					{
						OFFSET 0.000000 0.000000 0.000000
					}
				}
			}
		}
	}
	JOINT lowerback
	{
		OFFSET 0.004439 0.124404 -0.038385
		CHANNELS 3 Zrotation Yrotation Xrotation
		JOINT upperback
		{
			OFFSET 0.004488 0.137956 0.026820
			CHANNELS 3 Zrotation Yrotation Xrotation
			JOINT chest
			{
				OFFSET -0.002265 0.056032 0.002855
				CHANNELS 3 Zrotation Yrotation Xrotation
				JOINT lowerneck
				{
					OFFSET -0.013390 0.211636 -0.033468
					CHANNELS 3 Zrotation Yrotation Xrotation
					JOINT upperneck
					{
						OFFSET 0.010113 0.088937 0.050410
						CHANNELS 3 Zrotation Yrotation Xrotation
						End Site
						{
							OFFSET 0.000000 0.000000 0.000000
						}
					}
				}
				JOINT lclavicle
				{
					OFFSET 0.071702 0.114000 -0.018898
					CHANNELS 3 Zrotation Yrotation Xrotation
					JOINT lshoulder
					{
						OFFSET 0.122921 0.045205 -0.019046
						CHANNELS 3 Zrotation Yrotation Xrotation
						JOINT lelbow
						{
							OFFSET 0.255332 -0.015649 -0.022946
							CHANNELS 3 Zrotation Yrotation Xrotation
							JOINT lwrist
							{
								OFFSET 0.265709 0.012698 -0.007375
								CHANNELS 3 Zrotation Yrotation Xrotation
								End Site
								{
									OFFSET 0.000000 0.000000 0.000000
								}
							}
						}
					}
				}
				JOINT rclavicle
				{
					OFFSET -0.082954 0.112472 -0.023707
					CHANNELS 3 Zrotation Yrotation Xrotation
					JOINT rshoulder
					{
						OFFSET -0.113228 0.046853 -0.008472
						CHANNELS 3 Zrotation Yrotation Xrotation
						JOINT relbow
						{
							OFFSET -0.260127 -0.014369 -0.031269
							CHANNELS 3 Zrotation Yrotation Xrotation
							JOINT rwrist
							{
								OFFSET -0.269108 0.006794 -0.006027
								CHANNELS 3 Zrotation Yrotation Xrotation
								End Site
								{
									OFFSET 0.000000 0.000000 0.000000
								}
							}
						}
					}
				}
			}
		}
	}
}
MOTION
Frames: 10
Frame Time: 0.033333
-0.018274 0.346034 1.030820 -28.038653 0.793865 62.646742 11.153483 0.635125 -19.204549 -9.070838 13.351344 84.087108 -5.555229 -0.769103 -17.928248 0.000000 -0.000000 0.000000 -12.556006 -9.440236 -14.501688 2.410396 -17.681060 84.229610 15.176303 0.633371 10.150182 0.000000 -0.000000 0.000000 -0.775896 2.305577 32.585907 5.686990 0.214073 -7.395388 4.393496 0.552757 1.702710 -1.235370 3.763225 12.053723 -2.159397 9.278626 -1.358383 -32.858569 -7.667328 4.321765 -38.170081 -6.461541 8.367374 8.592840 -43.612396 -9.627240 12.979124 -10.144330 -2.981135 31.906154 5.396802 3.743347 26.860231 -7.009772 9.531932 16.600660 20.296965 8.754842 -1.413372 10.148446 5.394138 
-0.016618 0.347667 1.030779 -28.378326 0.472500 62.155654 11.637953 1.271868 -20.875641 -9.235903 14.348636 83.856867 -8.962697 -1.511072 -11.766364 0.000000 -0.000000 0.000000 -12.686400 -9.167474 -15.724169 2.134214 -17.331643 85.723615 14.379232 0.186667 12.370658 0.000000 -0.000000 0.000000 -0.819545 2.099474 32.785248 5.043429 0.094037 -7.416977 3.855723 0.628365 2.101197 -0.873675 3.532631 11.938918 -1.347570 10.118543 -0.559664 -32.378585 -9.120684 3.952438 -36.250703 -6.500603 9.644451 8.819539 -47.182432 -8.750269 12.543789 -10.854931 -2.197020 30.674070 7.203867 3.256199 24.050569 -4.645316 8.850197 16.643919 21.526196 8.350890 -2.316843 10.188187 6.698635 
-0.015359 0.349799 1.028477 -28.537792 0.319296 61.897101 11.888602 1.746447 -23.124527 -8.880223 15.584775 84.982957 -8.452668 -2.076956 -8.360891 0.000000 -0.000000 0.000000 -12.797149 -9.172951 -17.168563 1.709555 -17.355204 87.304881 13.530574 -0.574278 14.228357 0.000000 -0.000000 0.000000 -1.136661 1.957868 33.025441 4.801755 -0.072797 -7.528756 3.490453 0.795192 1.771776 -0.551488 3.474633 12.118579 -0.941594 10.618209 0.292732 -31.618254 -10.233003 3.810324 -34.304618 -7.014846 10.522877 8.482882 -50.308980 -7.046965 13.091421 -11.218179 -2.242242 29.641489 8.908412 2.840122 21.476790 -1.995853 8.067499 16.425656 21.370567 8.422955 -1.434823 10.555805 8.033820 
-0.014475 0.351098 1.025094 -28.623345 0.493505 61.538328 12.202870 1.599056 -25.080335 -6.738825 17.060992 87.823788 -8.037772 0.708734 -6.140738 0.000000 -0.000000 0.000000 -13.057626 -8.698440 -17.915292 1.169867 -18.130444 88.360156 13.294254 -0.997095 15.819027 0.000000 -0.000000 0.000000 -1.200826 1.979133 33.196393 4.837698 -0.285833 -7.580902 3.237753 1.018773 1.566483 -0.227356 3.661522 12.095626 -0.625151 9.987065 1.243228 -31.077862 -11.784796 3.669755 -32.212728 -8.004302 11.411041 8.368454 -52.207467 -6.199536 13.736122 -11.844999 -2.346211 29.420931 10.492754 2.645279 18.251334 0.098657 7.667028 16.406709 21.685132 9.736149 -2.325957 10.704580 8.757811 
-0.013419 0.351904 1.022689 -28.434532 0.897644 60.869468 12.233552 0.756263 -26.573525 -4.764366 17.746850 90.809920 -6.397191 3.389879 -3.266970 0.000000 -0.000000 0.000000 -13.204372 -8.004685 -17.639130 0.998149 -18.916581 88.572270 12.733903 -0.984243 16.818149 0.000000 -0.000000 0.000000 -1.229908 2.307338 33.264169 5.182481 -0.578957 -6.830554 3.324742 1.110291 1.105865 -0.261297 3.509175 12.287262 -0.489915 9.597228 1.461855 -30.543759 -13.817540 3.790711 -30.451862 -9.616121 11.742142 8.035025 -52.786991 -5.595406 13.198023 -11.707718 -1.886146 29.069701 12.175717 2.795689 15.704768 1.568178 7.122118 15.930214 21.777406 10.559188 -2.808819 11.108987 9.701191 
-0.012689 0.352505 1.021520 -28.250977 1.375062 60.410568 12.205953 -0.295215 -27.927214 -3.616718 17.732081 93.601932 -6.100677 4.908799 0.334113 0.000000 -0.000000 0.000000 -12.941170 -7.821286 -17.519398 0.751584 -19.319378 88.690379 11.913114 -1.742813 17.742688 0.000000 -0.000000 0.000000 -1.367561 2.843562 33.120739 5.646387 -0.817069 -6.374683 3.515475 1.113500 0.861835 0.048976 3.169756 12.386997 0.007771 9.131532 2.032501 -29.902605 -15.605001 3.820456 -29.442845 -11.639315 12.196209 7.955551 -52.399125 -5.687237 14.258808 -11.704382 -2.123567 28.677060 13.618476 2.760370 14.092076 2.711091 7.221048 15.429484 21.859334 11.748313 -3.934575 11.734023 10.392900 
-0.011959 0.352739 1.021504 -28.170528 1.714307 60.147034 12.225182 -1.426721 -28.790588 -3.626161 17.836909 95.556924 -5.381284 4.496649 1.521896 0.000000 -0.000000 0.000000 -12.569967 -7.733061 -17.462738 0.998616 -19.221303 88.610579 11.691824 -1.839431 17.998275 0.000000 -0.000000 0.000000 -1.623573 3.506725 32.499411 6.038374 -1.013166 -5.870443 3.804183 0.973305 0.765931 0.321651 3.172661 12.838073 0.550529 9.309100 2.078552 -29.319654 -17.193507 3.964651 -29.111839 -13.305728 12.353926 8.514848 -52.220712 -7.114004 15.091326 -11.527631 -1.507826 28.214045 14.652921 2.994182 13.228940 3.561597 7.376158 15.223967 23.155099 12.568553 -4.389470 11.600403 11.047783 
-0.011128 0.353177 1.021969 -28.294440 2.019706 59.874154 12.355525 -2.208260 -29.155899 -4.181697 17.756340 96.676463 -5.563796 4.060709 2.909627 0.000000 -0.000000 0.000000 -12.050528 -7.236931 -17.467712 1.025428 -19.164448 88.428663 11.619446 -1.889726 18.608495 0.000000 -0.000000 0.000000 -1.841454 3.961040 32.091626 6.318710 -0.995689 -5.504540 3.930325 0.919117 0.496851 0.661532 3.370549 13.293210 0.796127 9.465037 1.885671 -28.680326 -18.332667 4.042599 -29.060960 -14.774541 12.488540 9.443860 -52.615449 -7.730255 14.616964 -11.236580 -1.868093 27.504474 15.049950 2.849340 13.536284 4.486679 7.587753 15.099946 24.944164 13.648600 -3.052552 10.753598 9.758408 
-0.009687 0.353455 1.021888 -28.376586 2.266920 59.938792 12.432696 -2.837622 -29.606444 -4.627773 17.720164 97.536538 -5.435038 3.475338 6.326934 0.000000 -0.000000 0.000000 -11.932257 -7.011194 -17.755704 0.766269 -19.294539 88.394769 11.315945 -1.556981 19.416832 0.000000 -0.000000 0.000000 -1.979615 4.228659 31.717509 6.472918 -1.089452 -5.526417 3.912037 0.837265 0.450748 0.877774 3.440220 12.963964 1.001405 9.188006 1.920326 -28.094464 -18.562319 3.692237 -29.185981 -15.961003 12.529559 10.142266 -54.251916 -8.349812 15.151772 -11.126439 -1.971020 27.257103 14.873603 2.370175 14.423135 5.672993 7.085769 14.262915 27.766917 12.318655 -5.353270 11.382514 9.549795 
-0.008114 0.354026 1.021142 -28.555175 2.505431 59.804279 12.542357 -2.844309 -29.667366 -4.531645 17.408503 98.439761 -7.495425 2.909003 5.666947 0.000000 -0.000000 0.000000 -11.757234 -6.783066 -18.104184 0.483946 -19.409279 88.618770 11.589150 -1.576188 20.104348 0.000000 -0.000000 0.000000 -2.115394 4.312420 31.813395 6.536608 -1.132884 -5.792754 3.815595 0.834694 0.745282 1.405682 3.694655 12.412304 1.101719 8.394298 1.775301 -27.703425 -18.346212 2.843417 -29.222018 -16.775618 13.082105 11.065446 -56.348899 -9.021166 16.117781 -11.479078 -2.080431 27.396545 14.506333 1.343282 15.248014 6.828030 7.273704 14.131951 31.482865 10.169126 -8.625780 11.255400 6.197259 
